<svg xmlns="http://www.w3.org/2000/svg" xmlns:xlink="http://www.w3.org/1999/xlink" width="69.837" height="68.579" viewBox="0 0 69.837 68.579">
  <defs>
    <linearGradient id="linear-gradient" x1="0.5" y1="-0.275" x2="0.5" y2="1" gradientUnits="objectBoundingBox">
      <stop offset="0" stop-color="#b4b4b4"/>
      <stop offset="1" stop-color="#1b4b8d"/>
    </linearGradient>
  </defs>
  <g id="svgexport-17_31_" data-name="svgexport-17 (31)" transform="translate(0 -4.612)">
    <path id="Path_152" data-name="Path 152" d="M5.686,67.944h44.8v5.247H0V11.876H4.679V66.935a1.008,1.008,0,0,0,1.008,1.008ZM69.837,43.928A11.642,11.642,0,1,1,58.194,32.282,11.642,11.642,0,0,1,69.837,43.928Zm-8.09,6.647-4.732-12.9a1.008,1.008,0,0,0-1.893,0l-4.728,12.9a1.008,1.008,0,0,0,1.893.694l1.427-3.891h4.712l1.428,3.891a1.008,1.008,0,1,0,1.893-.694Zm4.312-11.219a1.009,1.009,0,0,0-1.009-1.009H63.633V36.934a1.009,1.009,0,1,0-2.017,0v1.414H60.2a1.008,1.008,0,1,0,0,2.016h1.417v1.419a1.009,1.009,0,1,0,2.017,0V40.363H65.05a1.007,1.007,0,0,0,1.009-1.007ZM54.453,45.362h3.233l-1.617-4.408ZM46.565,6.046v9.19l9.195.006Zm10.622,51.5v8.377H6.695V4.612H44.549v11.63a1.008,1.008,0,0,0,1.007,1.009l11.63.007V30.3a13.661,13.661,0,0,0,0,27.247ZM31.493,16.059l2.429,2.43a1.009,1.009,0,0,0,1.427,0l5.522-5.522a1.009,1.009,0,1,0-1.427-1.426l-4.808,4.809L32.92,14.634a1.009,1.009,0,1,0-1.427,1.426ZM28.156,51.482a1.009,1.009,0,0,0-1.008-1.009H12.378a1.009,1.009,0,0,0-1.009,1.009v8.083a1.007,1.007,0,0,0,1.009,1.007h14.77a1.007,1.007,0,0,0,1.008-1.007Zm0-13.5a1.009,1.009,0,0,0-1.008-1.009H12.378a1.009,1.009,0,0,0-1.009,1.009v8.078a1.009,1.009,0,0,0,1.008,1.008h14.77a1.008,1.008,0,0,0,1.008-1.008Zm0-13.5a1.007,1.007,0,0,0-1.008-1.007H12.378a1.007,1.007,0,0,0-1.009,1.007v8.078a1.009,1.009,0,0,0,1.009,1.009h14.77a1.009,1.009,0,0,0,1.008-1.008Zm0-13.5a1.009,1.009,0,0,0-1.008-1.009H12.378a1.009,1.009,0,0,0-1.009,1.009v8.081a1.009,1.009,0,0,0,1.008,1.008h14.77a1.008,1.008,0,0,0,1.008-1.008ZM40.872,52.049a1.009,1.009,0,0,0-1.427,0l-4.809,4.809L32.92,55.142a1.009,1.009,0,0,0-1.427,1.427L33.923,59a1.008,1.008,0,0,0,1.427,0l5.522-5.522a1.01,1.01,0,0,0,0-1.425Zm0-13.5a1.009,1.009,0,0,0-1.427,0l-4.807,4.809-1.717-1.72a1.008,1.008,0,1,0-1.427,1.424L33.923,45.5a1.01,1.01,0,0,0,1.427,0l5.521-5.522a1.012,1.012,0,0,0,0-1.427Zm0-13.5a1.007,1.007,0,0,0-1.426,0l-4.807,4.812L32.92,28.135a1.008,1.008,0,1,0-1.427,1.425l2.429,2.433a1.009,1.009,0,0,0,1.427,0l5.521-5.526a1.008,1.008,0,0,0,0-1.426ZM13.386,18.049H26.14V11.982H13.386Zm0,13.5H26.14V25.488H13.386Zm0,13.5H26.14V38.99H13.386Zm0,13.506H26.14V52.491H13.386Z" fill="url(#linear-gradient)"/>
  </g>
</svg>
