<svg xmlns="http://www.w3.org/2000/svg" xmlns:xlink="http://www.w3.org/1999/xlink" width="40" height="40" viewBox="0 0 40 40">
  <defs>
    <linearGradient id="linear-gradient" x1="0.5" x2="0.5" y2="1" gradientUnits="objectBoundingBox">
      <stop offset="0" stop-color="#0196cf"/>
      <stop offset="1" stop-color="#04285a"/>
    </linearGradient>
    <clipPath id="clip-path">
      <rect id="Rectangle_23865"  width="40" height="40" transform="translate(7129 3651)" fill="url(#linear-gradient)"/>
    </clipPath>
  </defs>
  <g id="Mask_Group_80"  transform="translate(-7129 -3651)" clip-path="url(#clip-path)">
    <g id="svgexport-18_6_"  transform="translate(7129.042 3651)">
      <path id="Path_4894"  d="M39,29.356,33.42,23.774a3.713,3.713,0,0,0-6.18,1.4,3.8,3.8,0,0,1-4.386,2.392c-3.987-1-9.37-6.18-10.367-10.367a3.613,3.613,0,0,1,2.392-4.386,3.713,3.713,0,0,0,1.4-6.18L10.693,1.047a3.982,3.982,0,0,0-5.383,0L1.523,4.835c-3.788,3.987.4,14.553,9.769,23.923s19.936,13.756,23.923,9.769L39,34.739a3.982,3.982,0,0,0,0-5.383Z" transform="translate(-0.133 0)" fill="url(#linear-gradient)"/>
    </g>
  </g>
</svg>
