<svg xmlns="http://www.w3.org/2000/svg" xmlns:xlink="http://www.w3.org/1999/xlink" width="52.793" height="67.579" viewBox="0 0 52.793 67.579">
  <defs>
    <linearGradient id="linear-gradient" x1="0.5" x2="0.5" y2="1" gradientUnits="objectBoundingBox">
      <stop offset="0" stop-color="#009bd5"/>
      <stop offset="1" stop-color="#031e43"/>
    </linearGradient>
  </defs>
  <g id="svgexport-17_57_" data-name="svgexport-17 (57)" transform="translate(-82.024 -32)">
    <path id="Path_4849" data-name="Path 4849" d="M132.388,45.626a1.207,1.207,0,0,1-.791,1.512l-2.3.721,4.632,14.8V42.615l-2.259.707Zm25.1,51.539H143.58a1.207,1.207,0,0,1-1.207-1.207V93.545H139.96a1.207,1.207,0,0,1-1.207-1.207v-53.1a1.207,1.207,0,0,1,1.207-1.207h2.414V35.62a1.207,1.207,0,0,1,1.207-1.207h14.481a1.207,1.207,0,0,1,1.207,1.207v2.414h2.414a1.207,1.207,0,0,1,1.207,1.207V79.417l.617.854h1.8V32H136.339V99.579H160.1a13.384,13.384,0,0,1-2.61-2.414Z" transform="translate(-40.139)" fill="url(#linear-gradient)"/>
    <path id="Path_4850" data-name="Path 4850" d="M93.786,105.995V97.912L86.491,74.6a1.207,1.207,0,0,1,.791-1.512l2.3-.721-.721-2.3a1.207,1.207,0,0,1,.791-1.512l4.132-1.294V64.73L82.024,68.411Zm22.906-7.786,3.643,5.042V67.62h-2.414a1.207,1.207,0,0,1-1.207-1.207V64H104.647v2.414a1.207,1.207,0,0,1-1.207,1.207h-2.414V118.3h2.414a1.207,1.207,0,0,1,1.207,1.207v2.414h11.108a13.184,13.184,0,0,1-1.45-5.694l-7.6-11.25a6.052,6.052,0,0,1-.336-6.2,7.243,7.243,0,1,1,9.859-1.166A6.085,6.085,0,0,1,116.692,98.208Z" transform="translate(0 -27.173)" fill="url(#linear-gradient)"/>
    <path id="Path_4851" data-name="Path 4851" d="M274.273,200v24.135a1.207,1.207,0,0,1-1.207,1.207h-3.62a1.207,1.207,0,0,1-.978-.5l-7.045-9.75-.022-.031a3.62,3.62,0,1,0-6,4.054L263.23,230.7a1.207,1.207,0,0,1,.185.9,10.874,10.874,0,0,0,10.858,10.632h7.241V214.481a3.635,3.635,0,0,0-.426-1.7Z" transform="translate(-146.697 -142.658)" fill="url(#linear-gradient)"/>
    <path id="Path_4852" data-name="Path 4852" d="M240,228.815a4.823,4.823,0,0,0,2.056,3.95c.134-.108.271-.212.416-.31a6.036,6.036,0,0,1,5.972-.445,4.827,4.827,0,1,0-8.443-3.2Z" transform="translate(-134.146 -163.026)" fill="url(#linear-gradient)"/>
  </g>
</svg>
