<svg xmlns="http://www.w3.org/2000/svg" xmlns:xlink="http://www.w3.org/1999/xlink" width="15" height="15" viewBox="0 0 15 15">
  <defs>
    <clipPath id="clip-path">
      <rect id="Rectangle_23859" data-name="Rectangle 23859" width="15" height="15" transform="translate(386 471)" fill="#fff" stroke="#fff" stroke-width="0.3"/>
    </clipPath>
  </defs>
  <g id="Mask_Group_74" data-name="Mask Group 74" transform="translate(-386 -471)" clip-path="url(#clip-path)">
    <g id="svgexport-17_39_" data-name="svgexport-17 (39)" transform="translate(385.985 471)">
      <path id="Path_4886" data-name="Path 4886" d="M1.78,10.211H1.719a1.7,1.7,0,0,1-1.7-1.7V7.183a1.7,1.7,0,0,1,1.7-1.7h.6V5.464a5.2,5.2,0,0,1,10.4,0v.015h.6a1.7,1.7,0,0,1,1.7,1.7V8.507a1.7,1.7,0,0,1-1.7,1.7h-.826a.3.3,0,0,1-.3-.3V5.464a4.673,4.673,0,0,0-9.346,0v4.45a.3.3,0,0,1-.3.3H2.307a3.041,3.041,0,0,0,3.041,3.016h.51a1.245,1.245,0,0,1,1.217-.981h.879a1.245,1.245,0,0,1,0,2.49H7.075a1.246,1.246,0,0,1-1.217-.981h-.51A3.568,3.568,0,0,1,1.78,10.211Zm6.892,3.28a.718.718,0,0,0-.718-.718H7.075a.718.718,0,1,0,0,1.436h.879A.718.718,0,0,0,8.672,13.491ZM2.314,6.006h-.6A1.177,1.177,0,0,0,.542,7.183V8.507A1.177,1.177,0,0,0,1.719,9.684h.6Zm10.4,0V9.684h.6a1.177,1.177,0,0,0,1.177-1.177V7.183A1.177,1.177,0,0,0,13.31,6.006Z" fill="#fff" stroke="#fff" stroke-width="0.3" fill-rule="evenodd"/>
    </g>
  </g>
</svg>
