<svg xmlns="http://www.w3.org/2000/svg" xmlns:xlink="http://www.w3.org/1999/xlink" width="15" height="15" viewBox="0 0 15 15">
  <defs>
    <clipPath id="clip-path">
      <rect id="Rectangle_22556" data-name="Rectangle 22556" width="15" height="15" transform="translate(-8910 -754)" fill="#fff"/>
    </clipPath>
  </defs>
  <g id="Mask_Group_62" data-name="Mask Group 62" transform="translate(8910 754)" clip-path="url(#clip-path)">
    <g id="svgexport-17_53_" data-name="svgexport-17 (53)" transform="translate(-8910 -754)">
      <path id="Path_4840" data-name="Path 4840" d="M5.734,7.853,4.855,3.459a.439.439,0,0,0-.431-.353H3.545a.439.439,0,0,0-.431.353L2.235,7.853a.439.439,0,0,0,.862.172l.281-1.4H4.591l.281,1.4a.439.439,0,0,0,.862-.172ZM3.554,5.742l.352-1.758h.158l.352,1.758H3.554Zm9.22.879H11.455V6.182a.439.439,0,0,0-.879,0v.439H9.258a.439.439,0,0,0,0,.879h.106a5.5,5.5,0,0,0,1.042,1.927c-.338.309-.679.562-.984.806a.439.439,0,1,0,.549.686c.306-.245.673-.517,1.044-.857.371.341.739.613,1.044.857a.439.439,0,0,0,.549-.686c-.3-.243-.646-.5-.984-.806A5.5,5.5,0,0,0,12.667,7.5h.106a.439.439,0,0,0,0-.879Zm-1.758,2.16A4.629,4.629,0,0,1,10.292,7.5h1.446a4.629,4.629,0,0,1-.723,1.285Z" fill="#fff"/>
      <path id="Path_4841" data-name="Path 4841" d="M13.682,2.666H7.342L7.153,1.155A1.32,1.32,0,0,0,5.845,0H1.318A1.32,1.32,0,0,0,0,1.318v9.7a1.32,1.32,0,0,0,1.318,1.318H5.024l.186,1.511A1.321,1.321,0,0,0,6.518,15h7.164A1.32,1.32,0,0,0,15,13.682v-9.7A1.32,1.32,0,0,0,13.682,2.666ZM1.318,11.455a.44.44,0,0,1-.439-.439v-9.7A.44.44,0,0,1,1.318.879H5.845a.44.44,0,0,1,.436.385l1.27,10.191Zm4.738,2.073-.147-1.194H7.088Zm8.065.154a.44.44,0,0,1-.439.439H6.705l1.673-1.935a.439.439,0,0,0,.106-.352L7.451,3.545h6.23a.44.44,0,0,1,.439.439Z" fill="#fff"/>
    </g>
  </g>
</svg>
