<svg xmlns="http://www.w3.org/2000/svg" xmlns:xlink="http://www.w3.org/1999/xlink" width="48.577" height="68.579" viewBox="0 0 48.577 68.579">
  <defs>
    <linearGradient id="linear-gradient" x1="0.5" y1="-0.41" x2="0.5" y2="1" gradientUnits="objectBoundingBox">
      <stop offset="0" stop-color="#b4b4b4"/>
      <stop offset="1" stop-color="#1b4b8d"/>
    </linearGradient>
  </defs>
  <g id="svgexport-17_58_" data-name="svgexport-17 (58)" transform="translate(-4 -0.5)">
    <path id="Path_4853" data-name="Path 4853" d="M12.572,2.7A8.6,8.6,0,0,0,4,11.272V56.42a8.419,8.419,0,0,0,8.572,8.572H44a8.6,8.6,0,0,0,8.572-8.572V11.272A8.419,8.419,0,0,0,44,2.7H38V7.558a9.715,9.715,0,1,1-19.431,0V2.7ZM28.288,26.417A6.286,6.286,0,1,1,22,32.7,6.342,6.342,0,0,1,28.288,26.417ZM20.859,43.847c.571-.571,1.429-.286,2,0a11.6,11.6,0,0,0,5.429,1.143A18.475,18.475,0,0,0,34,43.847a2.441,2.441,0,0,1,2,0,14.337,14.337,0,0,1,4,4.286,4.019,4.019,0,0,1-3.429,6H20.288a3.806,3.806,0,0,1-3.429-5.715A10.4,10.4,0,0,1,20.859,43.847Z" transform="translate(0 4.086)" fill="url(#linear-gradient)"/>
    <path id="Path_4854" data-name="Path 4854" d="M19.572,11.644V4.786A4.395,4.395,0,0,0,15.286.5,4.395,4.395,0,0,0,11,4.786v6.858a4.395,4.395,0,0,0,4.286,4.286A4.395,4.395,0,0,0,19.572,11.644Z" transform="translate(13.002 0)" fill="url(#linear-gradient)"/>
  </g>
</svg>
