<svg id="Icon_ionic-ios-notifications" data-name="Icon ionic-ios-notifications" xmlns="http://www.w3.org/2000/svg" width="22.218" height="28" viewBox="0 0 22.218 28">
  <path id="Path_27" data-name="Path 27" d="M17.945,32.045c-2.16,0-3.341-1.54-3.341-3.709h6.688C21.292,30.505,20.112,32.045,17.945,32.045Z" transform="translate(-6.822 -4.045)" fill="#031e43"/>
  <path id="Path_28" data-name="Path 28" d="M7.042,24.666c1.07-1.421,3.174-2.253,3.174-8.615,0-6.529,2.862-9.154,5.529-9.783.25-.063.431-.147.431-.413v-.2a1.695,1.695,0,1,1,3.389,0v.2c0,.259.181.35.431.413,2.674.637,5.529,3.254,5.529,9.783,0,6.361,2.1,7.187,3.174,8.615a1.39,1.39,0,0,1-1.1,2.225H8.139A1.39,1.39,0,0,1,7.042,24.666Z" transform="translate(-6.761 -3.93)" fill="#031e43"/>
</svg>
