<svg xmlns="http://www.w3.org/2000/svg" xmlns:xlink="http://www.w3.org/1999/xlink" width="55.558" height="68.579" viewBox="0 0 55.558 68.579">
  <defs>
    <linearGradient id="linear-gradient" x1="0.5" x2="0.5" y2="1" gradientUnits="objectBoundingBox">
      <stop offset="0" stop-color="#009bd5"/>
      <stop offset="1" stop-color="#042658"/>
    </linearGradient>
  </defs>
  <g id="svgexport-17_32_" data-name="svgexport-17 (32)" transform="translate(-9.6 -4.3)">
    <path id="Path_153" data-name="Path 153" d="M50.111,7.8v8.929h9.053ZM20.1,31.238l3.348-1.116L23.7,30a5.745,5.745,0,0,1-2.356-3.72,2.443,2.443,0,0,1-.124-4.216c-.248-1.488-.744-3.844,1.364-4.837.992-3.6,4.837-1.984,7.317-1.984,2.852,0,3.6,3.472,3.1,5.581,0,.372-.124.744-.124,1.116a2.554,2.554,0,0,1-.124,4.34A5.745,5.745,0,0,1,30.393,30c2.108.868,4.837,1.116,6.077,3.224h.62V13.257H17v20.09h.62A4.2,4.2,0,0,1,20.1,31.238Z" transform="translate(1.777 0.84)" fill="url(#linear-gradient)"/>
    <path id="Path_154" data-name="Path 154" d="M63.918,20.05H50.648a1.172,1.172,0,0,1-1.24-1.24V4.3H10.84A1.172,1.172,0,0,0,9.6,5.54v66.1a1.172,1.172,0,0,0,1.24,1.24H63.918a1.172,1.172,0,0,0,1.24-1.24V20.05ZM16.3,35.3V12.857a1.172,1.172,0,0,1,1.24-1.24h22.57a1.172,1.172,0,0,1,1.24,1.24v22.57a1.172,1.172,0,0,1-1.24,1.24H17.661C16.793,36.543,16.3,36.047,16.3,35.3Zm31,27.779H17.537a1.241,1.241,0,0,1,0-2.48H47.3A1.241,1.241,0,0,1,47.3,63.082Zm10.045-6.7H17.537a1.241,1.241,0,0,1,0-2.48H57.221A1.242,1.242,0,1,1,57.345,56.385ZM16.3,48.573a1.172,1.172,0,0,1,1.24-1.24H47.3a1.24,1.24,0,1,1,0,2.48H17.537A1.172,1.172,0,0,1,16.3,48.573ZM57.345,43.24H17.537a1.241,1.241,0,0,1,0-2.48H57.221A1.242,1.242,0,1,1,57.345,43.24Z" fill="url(#linear-gradient)"/>
  </g>
</svg>
