<svg xmlns="http://www.w3.org/2000/svg" xmlns:xlink="http://www.w3.org/1999/xlink" width="58.971" height="68.579" viewBox="0 0 58.971 68.579">
  <defs>
    <linearGradient id="linear-gradient" x1="0.5" x2="0.5" y2="1" gradientUnits="objectBoundingBox">
      <stop offset="0" stop-color="#009bd5"/>
      <stop offset="1" stop-color="#031e43"/>
    </linearGradient>
  </defs>
  <g id="svgexport-17_29_" data-name="svgexport-17 (29)" transform="translate(-23.389 -20.215)">
    <path id="Path_150" data-name="Path 150" d="M72.772,80.019a4.471,4.471,0,0,0-5.508,3.093v0a4.471,4.471,0,0,0,3.092,5.511h0a4.471,4.471,0,0,0,5.512-3.1v0a4.471,4.471,0,0,0-3.1-5.509h0Zm1.7-15.515,3.784-13.481-6.245-1.754-1.6,5.715a.962.962,0,0,1-1.758.222l-1.157-2-1.98,1.081a.962.962,0,0,1-1.434-1.076l1.6-5.716-5.412-1.519L56.484,59.457,74.469,64.5ZM70.683,77.989a6.417,6.417,0,0,0-3.671,1.844L51.951,75.606l4.013-14.3,5.413,1.518-1.6,5.716a.962.962,0,0,0,1.434,1.076l1.979-1.08,1.157,2a.962.962,0,0,0,1.758-.222L67.7,64.6l6.245,1.753Zm3.387.451a6.443,6.443,0,0,0-.7-.249h0l-.077-.022a6.376,6.376,0,0,0-.622-.142l8.5-30.273a.717.717,0,0,1,.171-.3.747.747,0,0,1,.3-.191h0a4.963,4.963,0,0,1,.713,1.665L74.071,78.44Zm-13.5,3.1a.95.95,0,0,1,.122.034l4.649,1.3q.016-.07.034-.14V82.73l.038-.134a6.432,6.432,0,0,1,.419-1.1l-16.4-4.6a.736.736,0,0,0-.887.465c-.006.027-.015.054-.022.08a.736.736,0,0,0,.475.847.971.971,0,0,1,.1.029l11.473,3.22Zm7.747-33.3,1.84.516-.988,3.519-.483-.836h0a.96.96,0,0,0-1.29-.362l-.849.463.988-3.52.662.186a.957.957,0,0,0,.121.034ZM43.3,24.2H38.65v5.65H56.02V24.2H51.375v0a.96.96,0,0,1-.96-.949,3.08,3.08,0,0,0-6.158-.072c0,.02,0,.04,0,.06a.964.964,0,0,1-.964.964Zm-6.573,3.73H27.755a2.569,2.569,0,0,0-2.564,2.564V80.881a2.569,2.569,0,0,0,2.564,2.564H60.244l4.948,1.389q.017.208.047.414H27.755a4.382,4.382,0,0,1-4.366-4.366V30.493a4.382,4.382,0,0,1,4.366-4.366h8.967v1.8Zm21.225-1.8h8.967a4.382,4.382,0,0,1,4.366,4.366V47.068l-1.8-.506V30.493a2.569,2.569,0,0,0-2.563-2.564H57.948v-1.8ZM38.5,65.821a4.906,4.906,0,1,0,1.239,1.488l.711-.776a.96.96,0,1,0-1.416-1.3ZM33.3,70.085a.961.961,0,1,1,1.024-1.627l1.11.7,1.753-1.912a2.979,2.979,0,1,0,1.109,1.63l-1.952,2.129a.961.961,0,0,1-1.258.207ZM43.22,58.543H54.741l-2.16,7.7H43.22a.964.964,0,1,0,0,1.928h8.82l-.62,2.21h-8.2a.964.964,0,1,0,0,1.928h7.658L50.1,75.086l-.15-.042a2.657,2.657,0,0,0-3.272,1.838v0a2.657,2.657,0,0,0,1.838,3.27l4.86,1.364H27.755a.64.64,0,0,1-.636-.636V30.493a.64.64,0,0,1,.636-.636h8.967v.956a.964.964,0,0,0,.964.964h19.3a.964.964,0,0,0,.964-.964v-.956h8.967a.64.64,0,0,1,.636.636V46.021l-6.958-1.953a1.723,1.723,0,0,0-2.123,1.192l-2.025,7.216H43.22a.964.964,0,1,0,0,1.928H55.9l-.62,2.21H43.22a.964.964,0,1,0,0,1.928ZM38.5,52.06a4.906,4.906,0,1,0,1.239,1.488l.711-.776a.96.96,0,1,0-1.416-1.3ZM33.3,56.323A.961.961,0,1,1,34.328,54.7l1.11.7,1.754-1.912a2.979,2.979,0,1,0,1.109,1.63l-1.953,2.129a.961.961,0,0,1-1.258.207Zm9.917-15.68h17.4a.964.964,0,1,0,0-1.928H43.22a.964.964,0,1,0,0,1.928Zm0,4.138H56.188a.964.964,0,1,0,0-1.928H43.22a.964.964,0,1,0,0,1.928ZM38.5,38.3a4.906,4.906,0,1,0,1.239,1.488l.711-.776a.96.96,0,0,0-1.416-1.3ZM33.3,42.561a.961.961,0,1,1,1.024-1.627l1.11.7,1.754-1.912a2.979,2.979,0,1,0,1.109,1.63l-1.953,2.129a.961.961,0,0,1-1.258.207ZM72.16,83.73a.84.84,0,1,1-.593-.246A.84.84,0,0,1,72.16,83.73Zm-.593-2.174a2.767,2.767,0,1,1-1.957.81,2.767,2.767,0,0,1,1.957-.81ZM63.228,63.348l2.623.736L64.864,67.6l-.483-.836h0a.96.96,0,0,0-1.29-.362l-.849.463Z" transform="translate(0 0)" fill-rule="evenodd" fill="url(#linear-gradient)"/>
  </g>
</svg>
