<svg xmlns="http://www.w3.org/2000/svg" xmlns:xlink="http://www.w3.org/1999/xlink" width="55.757" height="69" viewBox="0 0 55.757 69">
  <defs>
    <linearGradient id="linear-gradient" x1="0.5" x2="0.5" y2="1" gradientUnits="objectBoundingBox">
      <stop offset="0" stop-color="#009bd5"/>
      <stop offset="1" stop-color="#042658"/>
    </linearGradient>
  </defs>
  <g id="svgexport-17_30_" data-name="svgexport-17 (30)" transform="translate(-62.067 -16.005)">
    <path id="Path_151" data-name="Path 151" d="M94.793,72.672a11.516,11.516,0,1,0,11.514-11.518A11.527,11.527,0,0,0,94.793,72.672Zm10.362-5.564v-.821a1.151,1.151,0,1,1,2.3,0v.861a3.451,3.451,0,0,1,2.241,3.227,1.151,1.151,0,1,1-2.3,0,1.145,1.145,0,0,0-2.29,0,1.254,1.254,0,0,0,1.257,1.147,3.445,3.445,0,0,1,1.094,6.712v.821a1.151,1.151,0,0,1-2.3,0v-.861a3.451,3.451,0,0,1-2.237-3.226,1.151,1.151,0,1,1,2.3,0,1.158,1.158,0,0,0,1.143,1.143,1.143,1.143,0,0,0,0-2.286,3.553,3.553,0,0,1-3.559-3.449A3.451,3.451,0,0,1,105.155,67.108ZM72.368,23.491H66.529V80.543H94.958a13.809,13.809,0,0,1,6.036-20.628V23.491h-5.84v1.868A1.151,1.151,0,0,1,94,26.51H73.52a1.151,1.151,0,0,1-1.151-1.151ZM73.65,46.664H93.874a1.151,1.151,0,0,1,0,2.3H73.65a1.151,1.151,0,1,1,0-2.3Zm0,4.2H93.874a1.151,1.151,0,0,1,0,2.3H73.65a1.151,1.151,0,1,1,0-2.3Zm0,4.2H93.874a1.151,1.151,0,0,1,0,2.3H73.65a1.151,1.151,0,1,1,0-2.3ZM95.155,19.029h7.777a2.529,2.529,0,0,1,2.528,2.524V58.879a13.779,13.779,0,0,0-2.164.3V22.339a1.151,1.151,0,0,0-1.151-1.151H95.155Zm1.813,63.817A13.876,13.876,0,0,0,100.083,85H64.591a2.527,2.527,0,0,1-2.524-2.524V21.553a2.527,2.527,0,0,1,2.524-2.524h7.777v2.16h-6.99a1.151,1.151,0,0,0-1.151,1.151V81.694a1.151,1.151,0,0,0,1.151,1.151ZM92.853,24.208H74.671V16H92.853Z" transform="translate(0 0)" fill="url(#linear-gradient)"/>
  </g>
</svg>
