<svg xmlns="http://www.w3.org/2000/svg" xmlns:xlink="http://www.w3.org/1999/xlink" width="55.909" height="67.579" viewBox="0 0 55.909 67.579">
  <defs>
    <linearGradient id="linear-gradient" x1="0.5" y1="-0.295" x2="0.5" y2="1" gradientUnits="objectBoundingBox">
      <stop offset="0" stop-color="#b4b4b4"/>
      <stop offset="1" stop-color="#1b4b8d"/>
    </linearGradient>
  </defs>
  <path id="Path_155" data-name="Path 155" d="M59.181,59.631c1.846,0,3.668-.086,5.391-.251a20.584,20.584,0,0,1-1.208-3.616q-2.089.14-4.183.139A49.458,49.458,0,0,1,46.54,54.442a20.376,20.376,0,0,1-2.33-.787V56.79c.323.333,1.534,1.1,4.437,1.782A48.213,48.213,0,0,0,59.181,59.63Zm0-7.948c1.239,0,2.459-.038,3.647-.112a20.83,20.83,0,0,1,.241-3.735c-1.266.079-2.565.119-3.889.119A49.453,49.453,0,0,1,46.54,46.493a20.389,20.389,0,0,1-2.33-.787v3.135c.323.333,1.534,1.1,4.437,1.782A48.212,48.212,0,0,0,59.181,51.682ZM83.581,34.5a16.538,16.538,0,1,0,16.538,16.538A16.557,16.557,0,0,0,83.581,34.5Zm.435,14.473a11.3,11.3,0,0,1,3.973,1.384,5.438,5.438,0,0,1,2.424,4.853,6.37,6.37,0,0,1-4.721,5.974v2.875H81.47V61.187a6.37,6.37,0,0,1-4.721-5.974H80.97a2.418,2.418,0,0,0,2.611,2.061,2.388,2.388,0,0,0,2.611-2.061c0-1.225-.244-1.517-3.045-2.107a11.307,11.307,0,0,1-3.973-1.384,5.438,5.438,0,0,1-2.424-4.853A6.37,6.37,0,0,1,81.47,40.9V38.021h4.221V40.9a6.37,6.37,0,0,1,4.721,5.974H86.191a2.684,2.684,0,0,0-5.222,0c0,1.226.244,1.517,3.045,2.107ZM66.885,63.362a59.018,59.018,0,0,1-7.7.489A49.459,49.459,0,0,1,46.54,62.39a20.388,20.388,0,0,1-2.33-.787v3.135c.323.333,1.534,1.1,4.437,1.782a48.212,48.212,0,0,0,10.534,1.059A48.091,48.091,0,0,0,69.76,66.516a20.934,20.934,0,0,1-2.876-3.154Zm-5.6-28.952a42.271,42.271,0,0,1,5.632.719,19.243,19.243,0,0,1,2.561.7,20.721,20.721,0,0,1,10.17-5.168V13.7h4.519L70.465,0l-13.7,13.7h4.519V34.41ZM57.12,43.733a51.726,51.726,0,0,0,7.215-.469,20.733,20.733,0,0,1,2.106-3.92,44.855,44.855,0,0,0-9.32-.85c-6.981,0-12.64,1.173-12.64,2.619S50.139,43.733,57.12,43.733Z" transform="translate(-44.21)" fill="url(#linear-gradient)"/>
</svg>
