<svg xmlns="http://www.w3.org/2000/svg" xmlns:xlink="http://www.w3.org/1999/xlink" width="15" height="15" viewBox="0 0 15 15">
  <defs>
    <clipPath id="clip-path">
      <rect id="Rectangle_22557" data-name="Rectangle 22557" width="15" height="15" transform="translate(-8910 -686)" fill="#fff"/>
    </clipPath>
  </defs>
  <g id="Mask_Group_63" data-name="Mask Group 63" transform="translate(8910 686)" clip-path="url(#clip-path)">
    <g id="svgexport-17_54_" data-name="svgexport-17 (54)" transform="translate(-8911.003 -687.019)">
      <g id="Layer_2" data-name="Layer 2">
        <path id="Path_4842" data-name="Path 4842" d="M8.5,16.019a1.236,1.236,0,0,1-.6-.157L5.513,14.535A7.622,7.622,0,0,1,1.594,7.876V4.195A1.238,1.238,0,0,1,2.705,2.963a12.26,12.26,0,0,0,2.786-.63A12.278,12.278,0,0,0,7.855,1.2a1.241,1.241,0,0,1,1.3,0,12.3,12.3,0,0,0,2.364,1.132,12.26,12.26,0,0,0,2.786.63,1.238,1.238,0,0,1,1.111,1.231V7.876a7.622,7.622,0,0,1-3.918,6.658L9.105,15.862a1.235,1.235,0,0,1-.6.157Zm0-13.938a.169.169,0,0,0-.089.024A13.366,13.366,0,0,1,5.846,3.336a13.3,13.3,0,0,1-3.028.684.176.176,0,0,0-.161.175V7.877a6.558,6.558,0,0,0,3.371,5.729l2.388,1.326a.175.175,0,0,0,.171,0l2.389-1.326a6.558,6.558,0,0,0,3.371-5.729V4.195a.176.176,0,0,0-.161-.175,13.3,13.3,0,0,1-3.028-.684A13.366,13.366,0,0,1,8.591,2.106.167.167,0,0,0,8.5,2.081Z" fill="#fff"/>
        <path id="Path_4843" data-name="Path 4843" d="M8.149,10.1A.529.529,0,0,1,7.8,9.962L6.2,8.545a.531.531,0,0,1,.706-.794L8.115,8.824l2.3-2.457a.531.531,0,1,1,.775.727L8.536,9.929A.529.529,0,0,1,8.149,10.1Z" fill="#fff"/>
      </g>
    </g>
  </g>
</svg>
