<svg xmlns="http://www.w3.org/2000/svg" xmlns:xlink="http://www.w3.org/1999/xlink" width="40" height="40" viewBox="0 0 40 40">
  <defs>
    <linearGradient id="linear-gradient" x1="0.5" x2="0.5" y2="1" gradientUnits="objectBoundingBox">
      <stop offset="0" stop-color="#0196cf"/>
      <stop offset="1" stop-color="#04285a"/>
    </linearGradient>
    <clipPath id="clip-path">
      <rect id="Rectangle_23864"  width="40" height="40" fill="url(#linear-gradient)"/>
    </clipPath>
  </defs>
  <g id="Mask_Group_79"  clip-path="url(#clip-path)">
    <g id="svgexport-17_7_"  transform="translate(0 0.04)">
      <path id="Path_4893"  d="M20.715,40.009c3.059-.435,5.74-3.627,7.428-8.342a36.308,36.308,0,0,0-7.428-.874Zm4.887-.75c.181-.052.361-.105.54-.163.151-.049.3-.1.448-.153q.264-.091.526-.19c.149-.057.3-.117.444-.177l.509-.214q.471-.209.931-.44.215-.109.429-.224.24-.129.478-.264.212-.12.42-.246l.463-.286q.206-.131.409-.267.226-.153.448-.313.2-.142.4-.286.218-.168.433-.339c.127-.1.254-.2.38-.307.143-.119.28-.242.418-.364.122-.108.244-.215.362-.325.136-.128.269-.259.4-.39.115-.114.232-.226.344-.342.021-.022.041-.045.063-.067a24.027,24.027,0,0,0-4.9-1.885,17.739,17.739,0,0,1-4.569,7.419l.174-.042c.153-.043.3-.09.452-.134ZM40,20.764H31.428a37.073,37.073,0,0,1-1.443,9.89,24.862,24.862,0,0,1,5.425,2.159A19.973,19.973,0,0,0,40,20.764Zm-19.285-1.43H30A35.762,35.762,0,0,0,28.591,9.8a37.655,37.655,0,0,1-7.877.939Zm0-19.245V9.306a36.332,36.332,0,0,0,7.428-.874C26.455,3.717,23.774.524,20.715.09Zm0,29.274a37.678,37.678,0,0,1,7.877.94A35.765,35.765,0,0,0,30,20.764H20.715Zm14.7-22.078a24.862,24.862,0,0,1-5.425,2.159,37.073,37.073,0,0,1,1.443,9.89H40A19.979,19.979,0,0,0,35.411,7.286ZM34.445,6.2c-.021-.021-.041-.044-.061-.066-.113-.117-.23-.229-.346-.342-.133-.131-.265-.263-.4-.39-.118-.11-.241-.215-.362-.325-.139-.123-.277-.247-.42-.365-.124-.1-.25-.2-.376-.3q-.215-.175-.437-.342-.194-.145-.392-.286-.223-.162-.452-.317-.2-.135-.405-.264-.231-.149-.466-.291-.207-.124-.417-.244-.239-.137-.482-.267c-.143-.072-.286-.149-.429-.221-.164-.083-.33-.163-.5-.242q-.216-.1-.436-.2c-.169-.075-.34-.143-.511-.214q-.22-.091-.443-.176-.261-.1-.525-.189-.223-.079-.448-.153c-.179-.058-.357-.111-.541-.164C25.446.8,25.3.752,25.146.712,25.089.7,25.03.684,24.972.669a17.741,17.741,0,0,1,4.569,7.419,23.992,23.992,0,0,0,4.9-1.887ZM0,19.335H8.571a37.087,37.087,0,0,1,1.443-9.89A24.832,24.832,0,0,1,4.589,7.286,19.973,19.973,0,0,0,0,19.335ZM19.285,40.009V30.793a36.332,36.332,0,0,0-7.428.874c1.687,4.715,4.369,7.907,7.428,8.342Zm0-19.245H10A35.75,35.75,0,0,0,11.409,30.3a37.629,37.629,0,0,1,7.876-.94Zm0-20.675c-3.059.435-5.741,3.627-7.428,8.342a36.284,36.284,0,0,0,7.428.874Zm0,10.646A37.654,37.654,0,0,1,11.409,9.8,35.748,35.748,0,0,0,10,19.335h9.284ZM15.022.668,14.849.71c-.151.04-.3.086-.452.129-.179.052-.357.105-.537.162-.152.049-.3.1-.451.154-.175.062-.35.123-.523.189-.149.057-.3.117-.445.177l-.508.214c-.147.065-.293.132-.439.2q-.248.116-.493.239-.459.232-.906.488-.213.119-.422.246c-.155.094-.309.19-.462.286-.138.088-.274.177-.409.268q-.226.153-.448.313-.2.142-.4.286c-.146.11-.286.224-.433.339-.127.1-.255.2-.379.307-.143.118-.279.24-.417.362-.122.109-.245.215-.365.327-.136.127-.268.258-.4.389-.115.114-.233.226-.346.343-.021.022-.04.045-.062.067a24,24,0,0,0,4.9,1.885A17.733,17.733,0,0,1,15.022.668ZM5.962,34.307c.133.131.265.263.4.391.119.11.241.214.363.324.139.123.277.247.42.365.124.1.25.2.376.3.143.116.286.231.437.343.129.1.26.19.391.286.149.107.3.214.452.317q.2.135.405.265c.155.1.309.2.466.291q.207.125.417.244.239.137.482.266c.143.072.286.149.429.221.164.083.33.163.5.242q.215.1.436.2c.169.075.34.143.511.214.147.06.294.119.443.176.173.067.349.129.525.189.149.052.3.1.448.153.179.058.357.111.541.164.149.044.3.088.448.128.058.016.117.028.175.043a17.744,17.744,0,0,1-4.569-7.419,24,24,0,0,0-4.9,1.886c.021.021.041.044.062.066C5.73,34.081,5.845,34.193,5.962,34.307ZM4.589,32.814a24.866,24.866,0,0,1,5.425-2.159,37.087,37.087,0,0,1-1.443-9.89H0A19.976,19.976,0,0,0,4.589,32.814Zm0,0" transform="translate(0 -0.09)" fill="url(#linear-gradient)"/>
    </g>
  </g>
</svg>
